<svg xmlns="http://www.w3.org/2000/svg" xmlns:xlink="http://www.w3.org/1999/xlink" width="1080" zoomAndPan="magnify" viewBox="0 0 810 809.999993" height="1080" preserveAspectRatio="xMidYMid meet" version="1.0"><defs><clipPath id="517b4b3122"><path d="M 307.007812 253.238281 L 500.792969 253.238281 L 500.792969 557.761719 L 307.007812 557.761719 Z M 307.007812 253.238281 " clip-rule="nonzero"/></clipPath><clipPath id="c97c4e6b56"><path d="M 271 82.503906 L 358 82.503906 L 358 160 L 271 160 Z M 271 82.503906 " clip-rule="nonzero"/></clipPath><clipPath id="91938a624b"><path d="M 333 658 L 406 658 L 406 728.5 L 333 728.5 Z M 333 658 " clip-rule="nonzero"/></clipPath><clipPath id="c6bbf6c295"><path d="M 127.964844 127.964844 L 682.214844 127.964844 L 682.214844 682.214844 L 127.964844 682.214844 Z M 127.964844 127.964844 " clip-rule="nonzero"/></clipPath></defs><g clip-path="url(#517b4b3122)"><path fill="#ffffff" d="M 495.621094 557.761719 L 422.847656 557.761719 L 422.847656 547.429688 L 495.621094 547.429688 Z M 386.246094 557.761719 L 312.175781 557.761719 L 312.175781 547.429688 L 386.246094 547.429688 Z M 460.710938 520.71875 L 347.753906 520.71875 L 307.007812 481.125 L 307.007812 403.773438 L 344.667969 366.535156 L 344.023438 294.226562 L 384.070312 253.238281 L 425.046875 253.238281 L 464.421875 294.253906 L 463.769531 366.5625 L 500.789062 403.796875 L 500.789062 481.09375 Z M 351.953125 510.382812 L 456.460938 510.382812 L 471.988281 495.035156 L 471.988281 389.488281 L 457.203125 374.613281 L 404.222656 392.65625 L 351.214844 374.605469 L 336.128906 389.515625 L 336.128906 495.007812 Z M 317.34375 476.757812 L 325.792969 484.964844 L 325.792969 399.730469 L 317.34375 408.085938 Z M 482.324219 399.886719 L 482.324219 484.820312 L 490.457031 476.785156 L 490.457031 408.0625 Z M 361.472656 367.175781 L 404.222656 381.734375 L 447.082031 367.132812 L 404.730469 338.496094 Z M 354.75 338.089844 L 354.9375 359.105469 L 386.636719 338.089844 Z M 422.582031 338.089844 L 453.503906 359.003906 L 453.691406 338.089844 Z M 361.484375 291.144531 L 391.410156 291.144531 L 391.410156 334.921875 L 404.789062 326.054688 L 417.679688 334.773438 L 417.679688 291.144531 L 447.109375 291.144531 L 420.644531 263.574219 L 388.417969 263.574219 Z M 428.011719 327.75 L 453.78125 327.75 L 454.019531 301.484375 L 428.011719 301.484375 Z M 354.660156 327.75 L 381.074219 327.75 L 381.074219 301.484375 L 354.421875 301.484375 Z M 354.660156 327.75 " fill-opacity="1" fill-rule="nonzero"/></g><g clip-path="url(#c97c4e6b56)"><path fill="#000000" d="M 335.515625 148.324219 L 308.71875 157.785156 C 301.296875 160.40625 295.335938 160.675781 290.851562 158.597656 C 286.390625 156.507812 282.871094 151.816406 280.296875 144.527344 L 273.59375 125.535156 C 270.945312 118.03125 270.847656 111.921875 273.296875 107.207031 C 275.769531 102.460938 280.363281 98.898438 287.097656 96.523438 L 317.421875 85.820312 C 322.230469 84.121094 325.984375 83.097656 328.679688 82.742188 C 331.394531 82.351562 332.851562 82.441406 333.050781 83 L 334.429688 97.117188 C 332.625 97.542969 329.175781 98.519531 324.066406 100.054688 C 318.925781 101.570312 312.546875 103.667969 304.9375 106.355469 L 299.609375 108.234375 C 296.351562 109.386719 294.378906 110.773438 293.691406 112.402344 C 292.96875 114.007812 293.046875 116.066406 293.9375 118.578125 L 300.210938 136.367188 C 301.042969 138.714844 302.175781 140.359375 303.617188 141.292969 C 305.085938 142.214844 307.582031 142.054688 311.109375 140.8125 L 315.394531 139.300781 C 325.300781 135.804688 332.816406 133.015625 337.9375 130.933594 C 343.03125 128.863281 346.050781 127.496094 346.988281 126.835938 L 357.332031 135.847656 C 357.453125 136.191406 356.917969 136.96875 355.71875 138.167969 C 354.539062 139.339844 352.367188 140.792969 349.199219 142.546875 C 346.03125 144.292969 341.472656 146.21875 335.515625 148.324219 Z M 335.515625 148.324219 " fill-opacity="1" fill-rule="nonzero"/></g><path fill="#000000" d="M 531.15625 172.367188 L 511.945312 163.015625 L 533.792969 118.082031 L 510.183594 106.597656 L 516.746094 93.109375 L 583.484375 125.578125 L 576.921875 139.066406 L 553.011719 127.429688 Z M 531.15625 172.367188 " fill-opacity="1" fill-rule="nonzero"/><path fill="#000000" d="M 262.964844 646.105469 L 260.210938 646.046875 C 260.246094 643.515625 259.6875 641.101562 258.523438 638.808594 C 257.367188 636.511719 255.703125 634.609375 253.542969 633.101562 C 250.015625 630.636719 246.140625 629.777344 241.925781 630.527344 C 237.707031 631.277344 234.363281 633.417969 231.898438 636.949219 C 229.453125 640.457031 228.601562 644.320312 229.351562 648.542969 C 230.101562 652.761719 232.242188 656.105469 235.769531 658.570312 C 237.929688 660.078125 240.285156 660.984375 242.84375 661.28125 C 245.414062 661.554688 247.878906 661.238281 250.238281 660.332031 L 251.136719 662.976562 C 248.355469 664.039062 245.460938 664.402344 242.449219 664.066406 C 239.441406 663.726562 236.667969 662.671875 234.140625 660.902344 C 232.097656 659.476562 230.429688 657.707031 229.140625 655.597656 C 227.832031 653.511719 226.976562 651.324219 226.570312 649.039062 C 226.164062 646.753906 226.214844 644.402344 226.71875 641.992188 C 227.226562 639.582031 228.1875 637.363281 229.597656 635.34375 C 231.023438 633.300781 232.78125 631.625 234.871094 630.320312 C 236.957031 629.011719 239.144531 628.15625 241.429688 627.746094 C 243.714844 627.339844 246.0625 627.390625 248.472656 627.898438 C 250.894531 628.382812 253.128906 629.339844 255.175781 630.769531 C 257.730469 632.550781 259.675781 634.8125 261.019531 637.542969 C 262.371094 640.25 263.023438 643.105469 262.964844 646.105469 Z M 268.644531 646.132812 L 265.816406 646.023438 C 265.859375 642.601562 265.097656 639.335938 263.53125 636.238281 C 261.957031 633.101562 259.707031 630.511719 256.78125 628.46875 C 253.625 626.261719 250.167969 625.003906 246.410156 624.695312 C 242.675781 624.402344 239.105469 625.039062 235.703125 626.601562 C 232.285156 628.183594 229.46875 630.558594 227.265625 633.714844 C 225.078125 636.851562 223.828125 640.296875 223.519531 644.054688 C 223.230469 647.789062 223.863281 651.363281 225.421875 654.765625 C 227.003906 658.183594 229.378906 661 232.535156 663.207031 C 235.457031 665.25 238.664062 666.46875 242.15625 666.863281 C 245.644531 667.261719 248.996094 666.835938 252.210938 665.597656 L 253.203125 668.253906 C 249.523438 669.660156 245.722656 670.132812 241.800781 669.671875 C 237.859375 669.234375 234.226562 667.859375 230.90625 665.539062 C 227.328125 663.039062 224.644531 659.851562 222.859375 655.980469 C 221.074219 652.105469 220.351562 648.042969 220.699219 643.792969 C 221.0625 639.558594 222.488281 635.664062 224.96875 632.113281 C 227.464844 628.535156 230.636719 625.84375 234.484375 624.039062 C 238.355469 622.253906 242.417969 621.53125 246.667969 621.871094 C 250.917969 622.214844 254.832031 623.632812 258.410156 626.136719 C 261.734375 628.453125 264.277344 631.386719 266.046875 634.9375 C 267.832031 638.464844 268.699219 642.199219 268.644531 646.136719 Z M 274.308594 646.257812 L 271.484375 646.148438 C 271.519531 641.789062 270.546875 637.617188 268.558594 633.636719 C 266.554688 629.675781 263.703125 626.410156 260.015625 623.835938 C 257.019531 621.746094 253.757812 620.332031 250.230469 619.59375 C 246.703125 618.859375 243.273438 618.777344 239.933594 619.351562 C 236.605469 619.964844 233.414062 621.21875 230.355469 623.125 C 227.296875 625.03125 224.722656 627.484375 222.632812 630.480469 C 220.558594 633.453125 219.152344 636.703125 218.417969 640.234375 C 217.679688 643.765625 217.601562 647.191406 218.171875 650.527344 C 218.785156 653.859375 220.042969 657.050781 221.949219 660.113281 C 223.855469 663.171875 226.308594 665.746094 229.300781 667.835938 C 233.015625 670.429688 237.082031 671.976562 241.503906 672.472656 C 245.902344 672.949219 250.140625 672.421875 254.21875 670.882812 L 255.128906 673.589844 C 250.628906 675.28125 245.949219 675.847656 241.089844 675.292969 C 236.234375 674.734375 231.761719 673.027344 227.671875 670.171875 C 223.257812 667.089844 219.957031 663.164062 217.765625 658.382812 C 215.550781 653.589844 214.65625 648.558594 215.085938 643.292969 C 215.523438 638.070312 217.269531 633.261719 220.335938 628.875 C 223.414062 624.457031 227.328125 621.148438 232.085938 618.941406 C 236.878906 616.730469 241.90625 615.832031 247.167969 616.265625 C 252.40625 616.675781 257.230469 618.421875 261.644531 621.5 C 265.753906 624.371094 268.902344 628 271.085938 632.394531 C 273.292969 636.804688 274.367188 641.421875 274.308594 646.257812 Z M 279.953125 646.257812 L 277.128906 646.152344 C 277.1875 640.875 276 635.84375 273.566406 631.070312 C 271.167969 626.289062 267.730469 622.332031 263.246094 619.203125 C 259.648438 616.6875 255.714844 614.976562 251.445312 614.066406 C 247.160156 613.183594 243.003906 613.097656 238.984375 613.8125 C 234.921875 614.535156 231.042969 616.0625 227.347656 618.378906 C 223.644531 620.667969 220.527344 623.621094 218 627.242188 C 215.484375 630.847656 213.796875 634.773438 212.929688 639.039062 C 212.019531 643.3125 211.925781 647.476562 212.644531 651.542969 C 213.359375 655.566406 214.871094 659.4375 217.179688 663.15625 C 219.503906 666.851562 222.46875 669.957031 226.066406 672.472656 C 230.550781 675.597656 235.457031 677.472656 240.792969 678.09375 C 246.148438 678.683594 251.292969 678.046875 256.226562 676.171875 L 257.132812 678.878906 C 251.753906 680.894531 246.175781 681.558594 240.40625 680.878906 C 234.628906 680.195312 229.3125 678.160156 224.460938 674.769531 C 220.539062 672.03125 217.320312 668.644531 214.816406 664.613281 C 212.3125 660.585938 210.667969 656.382812 209.890625 652 C 209.113281 647.625 209.203125 643.113281 210.167969 638.464844 C 211.132812 633.816406 212.980469 629.542969 215.699219 625.640625 C 218.4375 621.714844 221.824219 618.5 225.855469 615.992188 C 229.886719 613.488281 234.085938 611.84375 238.460938 611.066406 C 242.839844 610.289062 247.347656 610.378906 252 611.34375 C 256.644531 612.3125 260.929688 614.160156 264.851562 616.902344 C 269.726562 620.3125 273.480469 624.605469 276.113281 629.792969 C 278.726562 635.003906 280.003906 640.492188 279.953125 646.257812 Z M 279.953125 646.257812 " fill-opacity="1" fill-rule="nonzero"/><path fill="#000000" d="M 318.601562 716.902344 L 342.355469 656.433594 L 345.003906 657.472656 L 321.253906 717.941406 Z M 260.800781 694.179688 L 284.554688 633.714844 L 287.160156 634.738281 L 263.410156 695.210938 Z M 313.347656 714.832031 L 337.101562 654.367188 L 339.75 655.410156 L 315.996094 715.875 Z M 308.085938 712.765625 L 331.839844 652.296875 L 334.488281 653.339844 L 310.734375 713.808594 Z M 317.347656 673.859375 L 326.621094 650.25 L 329.230469 651.273438 L 305.476562 711.742188 L 302.871094 710.714844 L 312.175781 687.027344 L 288.488281 677.71875 L 279.183594 701.40625 L 276.578125 700.382812 L 300.332031 639.917969 L 302.9375 640.941406 L 293.664062 664.550781 Z M 271.316406 698.316406 L 295.070312 637.847656 L 297.679688 638.875 L 273.929688 699.339844 Z M 266.058594 696.25 L 289.808594 635.78125 L 292.421875 636.804688 L 268.667969 697.273438 Z M 289.53125 675.070312 L 313.214844 684.378906 L 314.238281 681.765625 L 290.554688 672.457031 Z M 291.597656 669.808594 L 315.28125 679.117188 L 316.304688 676.507812 L 292.625 667.203125 Z M 291.597656 669.808594 " fill-opacity="1" fill-rule="nonzero"/><g clip-path="url(#91938a624b)"><path fill="#000000" d="M 377.59375 706.132812 L 365.730469 704.789062 L 367.1875 702.128906 L 376.769531 703.21875 Z M 379.191406 712 L 362.902344 710.15625 L 364.3125 707.492188 L 378.328125 709.082031 Z M 380.753906 717.863281 L 360.113281 715.527344 L 361.484375 712.859375 L 379.886719 714.941406 Z M 367.300781 662.628906 L 336.402344 720.664062 L 333.363281 720.320312 L 366.210938 658.660156 L 369.253906 659.003906 L 387.433594 726.449219 L 384.4375 726.109375 Z M 339.441406 721.007812 L 366.929688 669.304688 L 368.085938 673.066406 L 342.4375 721.347656 Z M 345.480469 721.695312 L 369.167969 677.085938 L 370.253906 681.097656 L 348.515625 722.039062 Z M 351.511719 722.375 L 371.292969 685.148438 L 372.324219 689.242188 L 354.507812 722.71875 Z M 387.359375 661.054688 L 405.542969 728.5 L 402.5 728.152344 L 384.363281 660.714844 Z M 378.28125 660.027344 L 381.320312 660.375 L 399.503906 727.816406 L 396.507812 727.476562 Z M 372.25 659.34375 L 375.246094 659.683594 L 393.46875 727.132812 L 390.433594 726.785156 Z M 372.25 659.34375 " fill-opacity="1" fill-rule="nonzero"/></g><path fill="#000000" d="M 458.734375 693.363281 L 453.902344 657.277344 L 456.722656 656.894531 L 461.558594 692.988281 C 462.082031 696.917969 460.980469 700.496094 458.242188 703.722656 C 455.503906 706.945312 451.957031 708.851562 447.601562 709.4375 C 443.253906 710.019531 439.328125 709.113281 435.84375 706.722656 C 432.375 704.328125 430.382812 701.164062 429.855469 697.238281 L 425.019531 661.144531 L 427.796875 660.773438 L 432.636719 696.863281 C 433.058594 700.007812 434.695312 702.550781 437.554688 704.480469 C 440.414062 706.382812 443.636719 707.09375 447.226562 706.613281 C 450.847656 706.125 453.785156 704.589844 456.035156 702.003906 C 458.257812 699.390625 459.160156 696.511719 458.734375 693.363281 Z M 464.339844 692.613281 L 459.503906 656.523438 L 462.324219 656.144531 L 467.15625 692.238281 C 467.515625 694.933594 467.289062 697.578125 466.464844 700.175781 C 465.667969 702.769531 464.421875 705.09375 462.726562 707.148438 C 461.058594 709.203125 458.972656 710.925781 456.476562 712.320312 C 453.980469 713.742188 451.277344 714.648438 448.355469 715.035156 C 445.464844 715.425781 442.628906 715.261719 439.847656 714.546875 C 437.039062 713.863281 434.558594 712.753906 432.414062 711.214844 C 430.265625 709.671875 428.449219 707.761719 426.972656 705.46875 C 425.523438 703.175781 424.617188 700.683594 424.257812 697.992188 L 419.417969 661.898438 L 422.199219 661.523438 L 427.035156 697.617188 C 427.453125 700.707031 428.675781 703.441406 430.707031 705.824219 C 432.714844 708.242188 435.253906 710.03125 438.328125 711.191406 C 441.394531 712.328125 444.609375 712.664062 447.980469 712.210938 C 451.347656 711.761719 454.359375 710.585938 457.019531 708.6875 C 459.675781 706.761719 461.667969 704.359375 462.996094 701.496094 C 464.304688 698.664062 464.75 695.699219 464.339844 692.613281 Z M 469.9375 691.867188 L 465.101562 655.773438 L 467.921875 655.394531 L 472.761719 691.484375 C 473.222656 694.9375 472.949219 698.332031 471.9375 701.671875 C 470.902344 705.011719 469.328125 707.984375 467.214844 710.578125 C 465.132812 713.171875 462.515625 715.382812 459.363281 717.203125 C 456.175781 719.003906 452.757812 720.144531 449.105469 720.636719 C 445.457031 721.128906 441.871094 720.917969 438.351562 720.023438 C 434.828125 719.09375 431.703125 717.65625 428.988281 715.703125 C 426.269531 713.753906 423.980469 711.304688 422.128906 708.347656 C 420.273438 705.394531 419.117188 702.195312 418.65625 698.738281 L 413.820312 662.648438 L 416.597656 662.273438 L 421.433594 698.367188 C 421.984375 702.464844 423.582031 706.109375 426.242188 709.296875 C 428.867188 712.488281 432.1875 714.859375 436.195312 716.40625 C 440.171875 717.929688 444.347656 718.402344 448.726562 717.816406 C 453.109375 717.230469 457.027344 715.675781 460.488281 713.152344 C 463.921875 710.605469 466.496094 707.445312 468.21875 703.671875 C 469.917969 699.898438 470.488281 695.964844 469.9375 691.867188 Z M 475.535156 691.113281 L 470.703125 655.023438 L 473.523438 654.644531 L 478.359375 690.734375 C 479.109375 696.324219 478.328125 701.714844 476.027344 706.910156 C 473.746094 712.074219 470.28125 716.382812 465.628906 719.835938 C 461.003906 723.285156 455.75 725.40625 449.851562 726.195312 C 443.984375 726.980469 438.351562 726.320312 432.957031 724.21875 C 427.5625 722.109375 423.085938 718.867188 419.519531 714.484375 C 415.957031 710.074219 413.804688 705.078125 413.054688 699.488281 L 408.222656 663.398438 L 411 663.027344 L 415.835938 699.117188 C 416.347656 702.933594 417.621094 706.476562 419.660156 709.75 C 421.730469 713.042969 424.269531 715.777344 427.273438 717.949219 C 430.277344 720.121094 433.734375 721.699219 437.636719 722.6875 C 441.515625 723.714844 445.464844 723.953125 449.476562 723.417969 C 453.492188 722.878906 457.25 721.605469 460.75 719.589844 C 464.230469 717.609375 467.144531 715.175781 469.5 712.285156 C 471.828125 709.402344 473.542969 706.097656 474.648438 702.378906 C 475.75 698.6875 476.046875 694.933594 475.535156 691.113281 Z M 475.535156 691.113281 " fill-opacity="1" fill-rule="nonzero"/><path fill="#000000" d="M 519.316406 639.4375 L 479.863281 654.847656 L 478.84375 652.230469 L 518.296875 636.828125 Z M 521.371094 644.699219 L 481.917969 660.105469 L 480.898438 657.496094 L 520.351562 642.089844 Z M 494.5 661.261719 L 483.972656 665.371094 L 482.953125 662.761719 L 522.40625 647.355469 L 523.425781 649.964844 L 512.941406 654.0625 L 531.433594 701.441406 L 528.78125 702.472656 L 510.285156 655.09375 L 507.675781 656.117188 L 526.167969 703.492188 L 523.519531 704.53125 L 505.027344 657.152344 L 502.410156 658.171875 L 520.910156 705.550781 L 518.253906 706.582031 L 499.761719 659.207031 L 497.152344 660.226562 L 515.644531 707.601562 L 512.992188 708.640625 Z M 494.5 661.261719 " fill-opacity="1" fill-rule="nonzero"/><path fill="#000000" d="M 575.429688 653.132812 L 565.488281 659.742188 L 564.894531 656.773438 L 572.921875 651.433594 Z M 580.433594 656.59375 L 566.777344 665.671875 L 566.144531 662.726562 L 577.886719 654.917969 Z M 585.398438 660.078125 L 568.101562 671.578125 L 567.433594 668.652344 L 582.855469 658.402344 Z M 539.554688 626.472656 L 553.265625 690.777344 L 550.71875 692.472656 L 536.164062 624.136719 L 538.710938 622.445312 L 596.035156 662.34375 L 593.523438 664.011719 Z M 555.8125 689.085938 L 543.566406 631.820312 L 546.871094 633.957031 L 558.320312 687.417969 Z M 560.867188 685.722656 L 550.285156 636.332031 L 553.699219 638.703125 L 563.417969 684.027344 Z M 565.929688 682.359375 L 557.101562 641.136719 L 560.527344 643.601562 L 568.4375 680.6875 Z M 553.886719 612.351562 L 611.210938 652.25 L 608.664062 653.945312 L 551.375 614.023438 Z M 546.28125 617.410156 L 548.828125 615.71875 L 606.152344 655.613281 L 603.636719 657.285156 Z M 541.222656 620.773438 L 543.734375 619.105469 L 601.09375 658.976562 L 598.546875 660.671875 Z M 541.222656 620.773438 " fill-opacity="1" fill-rule="nonzero"/><path fill="#000000" d="M 87.34375 406.667969 C 87.34375 392.960938 98.453125 381.851562 112.15625 381.851562 C 125.855469 381.851562 136.964844 392.960938 136.964844 406.667969 C 136.964844 420.375 125.855469 431.484375 112.15625 431.484375 C 98.453125 431.484375 87.34375 420.375 87.34375 406.667969 Z M 87.34375 406.667969 " fill-opacity="1" fill-rule="nonzero"/><path fill="#000000" d="M 670.835938 406.667969 C 670.835938 392.960938 681.941406 381.851562 695.644531 381.851562 C 709.347656 381.851562 720.457031 392.960938 720.457031 406.667969 C 720.457031 420.375 709.347656 431.484375 695.644531 431.484375 C 681.941406 431.484375 670.835938 420.375 670.835938 406.667969 Z M 670.835938 406.667969 " fill-opacity="1" fill-rule="nonzero"/><path fill="#000000" d="M 412.988281 -117.671875 C 578.441406 -117.671875 725.957031 -40.828125 821.800781 79.125 L 820.144531 79.125 C 724.523438 -40.074219 577.664062 -116.382812 412.988281 -116.382812 C 248.308594 -116.382812 101.453125 -40.070312 5.828125 79.125 L 4.179688 79.125 C 100.023438 -40.828125 247.53125 -117.671875 412.988281 -117.671875 Z M 936.027344 405.5 C 936.027344 452.992188 929.699219 499.007812 917.847656 542.75 L 917.847656 537.734375 C 928.871094 495.503906 934.742188 451.1875 934.742188 405.5 C 934.742188 359.816406 928.871094 315.5 917.847656 273.269531 L 917.847656 268.253906 C 929.703125 311.988281 936.03125 358.003906 936.027344 405.5 Z M 412.988281 928.671875 C 247.53125 928.671875 100.019531 851.828125 4.179688 731.875 L 5.828125 731.875 C 101.453125 851.074219 248.308594 927.382812 412.988281 927.382812 C 577.664062 927.382812 724.523438 851.070312 820.144531 731.875 L 821.800781 731.875 C 725.957031 851.828125 578.449219 928.671875 412.988281 928.671875 Z M 412.988281 928.671875 " fill-opacity="1" fill-rule="nonzero"/><g clip-path="url(#c6bbf6c295)"><path fill="#ffffff" d="M 254.046875 632.144531 C 253.140625 633.351562 251.785156 634.105469 250.277344 634.105469 C 249.371094 634.105469 248.46875 633.800781 247.714844 633.351562 C 246.808594 632.746094 246.054688 632.144531 245.148438 631.539062 C 243.039062 630.03125 242.585938 627.316406 244.09375 625.207031 C 245.601562 623.09375 248.316406 622.640625 250.425781 624.152344 C 251.183594 624.753906 252.085938 625.355469 252.839844 625.808594 C 254.953125 627.167969 255.554688 630.03125 254.046875 632.144531 Z M 225.242188 603.941406 C 223.429688 602.28125 220.566406 602.433594 218.90625 604.242188 C 217.25 606.050781 217.398438 608.917969 219.207031 610.578125 C 219.960938 611.332031 220.71875 611.933594 221.472656 612.539062 C 222.375 613.292969 223.429688 613.746094 224.488281 613.746094 C 225.695312 613.746094 227.050781 613.292969 227.804688 612.234375 C 229.464844 610.425781 229.3125 607.5625 227.351562 605.902344 C 226.75 605.148438 225.996094 604.542969 225.242188 603.941406 Z M 199.453125 219.359375 C 198.699219 220.113281 198.09375 220.867188 197.492188 221.621094 C 195.832031 223.429688 195.984375 226.296875 197.945312 227.957031 C 198.847656 228.710938 199.902344 229.164062 200.960938 229.164062 C 202.167969 229.164062 203.523438 228.710938 204.277344 227.65625 C 204.882812 226.898438 205.636719 226.144531 206.238281 225.390625 C 207.898438 223.582031 207.746094 220.71875 205.9375 219.058594 C 203.976562 217.25 201.109375 217.398438 199.453125 219.359375 Z M 182.863281 555.078125 C 181.503906 552.964844 178.640625 552.511719 176.527344 553.871094 C 174.417969 555.226562 173.964844 558.09375 175.320312 560.203125 C 175.925781 561.109375 176.527344 561.863281 176.980469 562.769531 C 177.886719 563.976562 179.242188 564.730469 180.75 564.730469 C 181.65625 564.730469 182.558594 564.425781 183.3125 563.976562 C 185.425781 562.617188 185.878906 559.753906 184.519531 557.640625 C 184.070312 556.734375 183.464844 555.980469 182.863281 555.078125 Z M 184.824219 244.394531 C 182.710938 242.886719 179.996094 243.488281 178.488281 245.449219 C 177.886719 246.355469 177.28125 247.109375 176.679688 248.015625 C 175.320312 250.125 175.773438 252.839844 177.886719 254.347656 C 178.640625 254.953125 179.542969 255.101562 180.449219 255.101562 C 181.957031 255.101562 183.3125 254.347656 184.21875 253.140625 C 184.824219 252.386719 185.273438 251.484375 185.878906 250.730469 C 187.386719 248.617188 186.933594 245.753906 184.824219 244.394531 Z M 202.617188 580.714844 C 200.960938 578.753906 198.09375 578.605469 196.285156 580.261719 C 194.476562 581.921875 194.171875 584.789062 195.832031 586.597656 C 196.433594 587.351562 197.191406 588.105469 197.792969 588.859375 C 198.699219 589.914062 199.902344 590.367188 201.109375 590.367188 C 202.167969 590.367188 203.222656 590.066406 204.128906 589.160156 C 205.9375 587.503906 206.238281 584.636719 204.429688 582.828125 C 203.976562 582.222656 203.222656 581.46875 202.617188 580.714844 Z M 310.152344 655.820312 C 309.246094 655.519531 308.339844 655.066406 307.4375 654.765625 C 305.175781 653.863281 302.460938 655.066406 301.554688 657.332031 C 300.648438 659.59375 301.855469 662.308594 304.117188 663.210938 C 305.023438 663.511719 306.078125 663.964844 306.984375 664.269531 C 307.4375 664.417969 308.039062 664.570312 308.644531 664.570312 C 310.453125 664.570312 312.261719 663.511719 312.867188 661.703125 C 313.769531 659.289062 312.5625 656.726562 310.152344 655.820312 Z M 309.246094 145.007812 C 308.339844 145.308594 307.285156 145.761719 306.378906 146.0625 C 304.117188 146.96875 302.910156 149.53125 303.816406 151.945312 C 304.570312 153.753906 306.230469 154.808594 308.039062 154.808594 C 308.644531 154.808594 309.09375 154.660156 309.699219 154.507812 C 310.601562 154.207031 311.507812 153.753906 312.414062 153.453125 C 314.828125 152.546875 316.03125 149.984375 315.128906 147.570312 C 314.222656 145.308594 311.660156 144.101562 309.246094 145.007812 Z M 341.371094 135.355469 C 340.3125 135.65625 339.410156 135.808594 338.355469 136.109375 C 335.941406 136.710938 334.433594 139.125 335.035156 141.539062 C 335.488281 143.648438 337.449219 145.007812 339.410156 145.007812 C 339.710938 145.007812 340.164062 145.007812 340.464844 144.855469 C 341.371094 144.554688 342.425781 144.402344 343.332031 144.101562 C 345.742188 143.5 347.25 141.085938 346.648438 138.671875 C 346.046875 136.257812 343.78125 134.75 341.371094 135.355469 Z M 280.742188 642.550781 C 279.835938 642.097656 278.933594 641.644531 278.179688 641.191406 C 275.914062 639.984375 273.199219 640.890625 271.996094 643.003906 C 270.789062 645.265625 271.691406 647.980469 273.804688 649.1875 C 274.710938 649.636719 275.613281 650.089844 276.519531 650.695312 C 277.121094 650.996094 277.875 651.148438 278.628906 651.148438 C 280.289062 651.148438 281.796875 650.242188 282.703125 648.734375 C 283.757812 646.472656 282.851562 643.757812 280.742188 642.550781 Z M 249.824219 175.472656 C 248.917969 176.074219 248.164062 176.679688 247.261719 177.132812 C 245.148438 178.488281 244.695312 181.355469 246.054688 183.464844 C 246.957031 184.671875 248.316406 185.425781 249.824219 185.425781 C 250.730469 185.425781 251.632812 185.125 252.386719 184.671875 C 253.140625 184.070312 254.046875 183.617188 254.800781 183.011719 C 256.914062 181.65625 257.363281 178.789062 256.007812 176.679688 C 254.800781 174.566406 251.9375 174.113281 249.824219 175.472656 Z M 278.628906 158.429688 C 277.726562 158.882812 276.820312 159.335938 275.914062 159.785156 C 273.652344 160.992188 272.898438 163.707031 273.953125 165.96875 C 274.710938 167.480469 276.367188 168.382812 278.027344 168.382812 C 278.78125 168.382812 279.535156 168.234375 280.136719 167.929688 C 281.042969 167.480469 281.949219 167.027344 282.703125 166.574219 C 284.964844 165.367188 285.871094 162.652344 284.664062 160.542969 C 283.457031 158.429688 280.890625 157.222656 278.628906 158.429688 Z M 341.066406 665.472656 C 340.164062 665.171875 339.109375 665.023438 338.203125 664.71875 C 335.789062 664.117188 333.375 665.625 332.621094 668.039062 C 332.019531 670.453125 333.527344 672.863281 335.941406 673.617188 C 336.996094 673.921875 337.902344 674.070312 338.957031 674.371094 C 339.257812 674.523438 339.710938 674.523438 340.011719 674.523438 C 341.972656 674.523438 343.933594 673.164062 344.386719 671.054688 C 344.988281 668.492188 343.480469 666.078125 341.066406 665.472656 Z M 139.125 344.535156 C 139.425781 344.6875 139.878906 344.6875 140.179688 344.6875 C 142.292969 344.6875 144.101562 343.332031 144.554688 341.21875 C 144.855469 340.3125 145.007812 339.257812 145.308594 338.355469 C 145.910156 335.941406 144.402344 333.527344 141.992188 332.925781 C 139.578125 332.320312 137.164062 333.828125 136.5625 336.242188 C 136.257812 337.296875 136.109375 338.203125 135.808594 339.257812 C 135.203125 341.519531 136.710938 343.933594 139.125 344.535156 Z M 656.726562 312.714844 C 657.332031 314.523438 659.140625 315.730469 660.949219 315.730469 C 661.402344 315.730469 662.003906 315.582031 662.457031 315.429688 C 664.871094 314.523438 666.078125 311.960938 665.171875 309.699219 C 664.871094 308.792969 664.417969 307.738281 664.117188 306.832031 C 663.210938 304.570312 660.648438 303.363281 658.234375 304.269531 C 655.972656 305.175781 654.765625 307.738281 655.671875 310.152344 C 656.125 310.90625 656.425781 311.808594 656.726562 312.714844 Z M 133.847656 376.960938 C 133.996094 376.960938 134.148438 376.960938 134.449219 376.960938 C 136.710938 376.960938 138.671875 375.304688 138.972656 373.042969 C 139.125 372.136719 139.277344 371.082031 139.277344 370.175781 C 139.578125 367.761719 137.917969 365.5 135.355469 365.046875 C 132.941406 364.746094 130.679688 366.40625 130.226562 368.96875 C 130.078125 370.023438 129.925781 370.929688 129.925781 371.984375 C 129.625 374.550781 131.433594 376.660156 133.847656 376.960938 Z M 137.015625 405.316406 L 137.015625 405.015625 C 137.015625 404.109375 137.015625 403.203125 137.015625 402.449219 C 137.015625 399.886719 135.054688 397.925781 132.488281 397.925781 C 130.078125 397.925781 127.964844 399.886719 127.964844 402.449219 C 127.964844 403.355469 127.964844 404.261719 127.964844 405.164062 L 127.964844 405.46875 C 127.964844 408.03125 129.925781 409.992188 132.488281 409.992188 C 135.054688 409.992188 137.015625 407.878906 137.015625 405.316406 Z M 671.207031 372.589844 C 671.355469 373.492188 671.507812 374.550781 671.507812 375.453125 C 671.808594 377.714844 673.769531 379.527344 676.03125 379.527344 C 676.183594 379.527344 676.332031 379.527344 676.484375 379.527344 C 678.898438 379.226562 680.707031 376.960938 680.554688 374.550781 C 680.40625 373.492188 680.253906 372.589844 680.253906 371.53125 C 679.953125 369.121094 677.691406 367.308594 675.277344 367.613281 C 672.5625 367.914062 670.902344 370.175781 671.207031 372.589844 Z M 665.324219 340.765625 C 665.625 341.671875 665.777344 342.726562 666.078125 343.632812 C 666.53125 345.742188 668.492188 347.101562 670.449219 347.101562 C 670.753906 347.101562 671.207031 347.101562 671.507812 346.949219 C 673.917969 346.347656 675.429688 343.933594 674.824219 341.519531 C 674.523438 340.464844 674.371094 339.558594 674.070312 338.503906 C 673.46875 336.089844 671.054688 334.582031 668.640625 335.1875 C 666.226562 335.941406 664.71875 338.355469 665.324219 340.765625 Z M 153.453125 497.617188 C 152.546875 495.203125 149.984375 493.996094 147.570312 494.902344 C 145.15625 495.804688 143.953125 498.371094 144.855469 500.78125 C 145.15625 501.6875 145.609375 502.742188 145.910156 503.648438 C 146.667969 505.457031 148.324219 506.515625 150.136719 506.515625 C 150.738281 506.515625 151.191406 506.363281 151.792969 506.210938 C 154.054688 505.308594 155.261719 502.742188 154.359375 500.332031 C 154.054688 499.425781 153.753906 498.519531 153.453125 497.617188 Z M 152.699219 301.707031 C 150.4375 300.800781 147.722656 302.007812 146.816406 304.269531 C 146.515625 305.175781 146.0625 306.230469 145.761719 307.132812 C 144.855469 309.398438 146.0625 312.113281 148.324219 313.015625 C 148.777344 313.167969 149.378906 313.316406 149.984375 313.316406 C 151.792969 313.316406 153.605469 312.261719 154.207031 310.453125 C 154.507812 309.546875 154.960938 308.644531 155.261719 307.738281 C 156.167969 305.175781 155.113281 302.609375 152.699219 301.707031 Z M 166.421875 527.328125 C 165.214844 525.0625 162.5 524.160156 160.390625 525.367188 C 158.277344 526.574219 157.222656 529.285156 158.429688 531.398438 C 158.882812 532.304688 159.335938 533.207031 159.785156 534.113281 C 160.542969 535.621094 162.199219 536.527344 163.859375 536.527344 C 164.613281 536.527344 165.214844 536.375 165.96875 536.074219 C 168.234375 534.867188 168.988281 532.152344 167.929688 529.890625 C 167.328125 528.984375 166.875 528.082031 166.421875 527.328125 Z M 138.972656 437.742188 C 138.824219 436.835938 138.671875 435.78125 138.671875 434.875 C 138.371094 432.464844 136.109375 430.652344 133.695312 430.804688 C 131.28125 431.105469 129.472656 433.367188 129.625 435.78125 C 129.773438 436.835938 129.925781 437.742188 129.925781 438.796875 C 130.226562 441.058594 132.1875 442.71875 134.449219 442.71875 C 134.601562 442.71875 134.75 442.71875 135.054688 442.71875 C 137.464844 442.417969 139.277344 440.15625 138.972656 437.742188 Z M 167.027344 271.996094 C 164.765625 270.789062 162.050781 271.691406 160.84375 273.804688 C 160.390625 274.710938 159.9375 275.613281 159.335938 276.519531 C 158.128906 278.78125 159.03125 281.496094 161.296875 282.550781 C 161.898438 282.851562 162.652344 283.003906 163.40625 283.003906 C 165.066406 283.003906 166.574219 282.097656 167.480469 280.589844 C 167.929688 279.6875 168.382812 278.78125 168.835938 278.027344 C 170.042969 275.914062 169.289062 273.199219 167.027344 271.996094 Z M 144.855469 469.5625 C 144.554688 468.660156 144.402344 467.601562 144.101562 466.699219 C 143.5 464.285156 141.085938 462.777344 138.671875 463.378906 C 136.257812 463.984375 134.75 466.398438 135.355469 468.808594 C 135.65625 469.867188 135.808594 470.769531 136.109375 471.824219 C 136.5625 473.9375 138.523438 475.292969 140.484375 475.292969 C 140.785156 475.292969 141.238281 475.292969 141.539062 475.144531 C 143.953125 474.390625 145.460938 471.976562 144.855469 469.5625 Z M 223.28125 195.832031 C 222.527344 196.433594 221.773438 197.191406 221.019531 197.792969 C 219.207031 199.453125 219.058594 202.316406 220.71875 204.128906 C 221.621094 205.183594 222.828125 205.636719 224.035156 205.636719 C 225.089844 205.636719 226.144531 205.332031 227.050781 204.429688 C 227.804688 203.824219 228.558594 203.070312 229.3125 202.46875 C 231.273438 200.808594 231.425781 197.945312 229.765625 196.132812 C 228.105469 194.476562 225.242188 194.171875 223.28125 195.832031 Z M 633.046875 247.5625 C 631.691406 245.449219 628.824219 245 626.714844 246.355469 C 624.601562 247.714844 624.152344 250.578125 625.507812 252.691406 C 626.109375 253.445312 626.5625 254.347656 627.167969 255.101562 C 628.070312 256.460938 629.429688 257.0625 630.9375 257.0625 C 631.84375 257.0625 632.746094 256.761719 633.5 256.308594 C 635.613281 254.953125 636.066406 252.085938 634.707031 249.976562 C 634.253906 249.222656 633.652344 248.46875 633.046875 247.5625 Z M 631.992188 556.132812 C 629.882812 554.773438 627.167969 555.226562 625.660156 557.339844 C 625.054688 558.09375 624.601562 558.996094 624 559.753906 C 622.492188 561.863281 623.09375 564.578125 625.054688 566.085938 C 625.808594 566.691406 626.714844 566.839844 627.621094 566.839844 C 628.976562 566.839844 630.484375 566.238281 631.390625 564.878906 C 631.992188 564.125 632.597656 563.222656 633.199219 562.316406 C 634.558594 560.355469 634.105469 557.488281 631.992188 556.132812 Z M 605.75 582.675781 C 605.148438 583.429688 604.394531 584.183594 603.789062 584.9375 C 602.132812 586.75 602.28125 589.613281 604.09375 591.273438 C 604.996094 592.027344 606.050781 592.480469 607.109375 592.480469 C 608.316406 592.480469 609.519531 592.027344 610.425781 590.972656 C 611.179688 590.21875 611.785156 589.460938 612.539062 588.707031 C 614.195312 586.898438 614.046875 584.035156 612.085938 582.375 C 610.277344 580.714844 607.410156 580.867188 605.75 582.675781 Z M 612.386719 221.320312 C 610.726562 219.511719 607.863281 219.207031 606.050781 220.867188 C 604.242188 222.527344 603.941406 225.390625 605.601562 227.203125 C 606.203125 227.957031 606.957031 228.710938 607.5625 229.464844 C 608.464844 230.519531 609.671875 230.972656 611.03125 230.972656 C 612.085938 230.972656 613.140625 230.671875 614.046875 229.917969 C 615.855469 228.257812 616.15625 225.390625 614.5 223.582031 C 613.746094 222.828125 613.140625 222.074219 612.386719 221.320312 Z M 582.828125 605.601562 C 582.074219 606.203125 581.320312 606.957031 580.566406 607.5625 C 578.605469 609.21875 578.453125 612.085938 580.113281 613.894531 C 581.015625 614.949219 582.222656 615.402344 583.582031 615.402344 C 584.636719 615.402344 585.691406 615.101562 586.597656 614.347656 C 587.351562 613.746094 588.105469 612.988281 588.859375 612.386719 C 590.667969 610.726562 590.972656 607.863281 589.3125 606.050781 C 587.652344 604.09375 584.789062 603.941406 582.828125 605.601562 Z M 565.03125 178.789062 C 564.125 178.1875 563.371094 177.582031 562.464844 176.980469 C 560.355469 175.621094 557.640625 176.074219 556.132812 178.1875 C 554.773438 180.296875 555.226562 183.011719 557.339844 184.519531 C 558.09375 185.125 558.996094 185.578125 559.75 186.179688 C 560.507812 186.78125 561.410156 187.085938 562.316406 187.085938 C 563.671875 187.085938 565.179688 186.480469 566.085938 185.125 C 567.445312 183.011719 566.992188 180.148438 565.03125 178.789062 Z M 588.859375 197.640625 C 587.050781 195.984375 584.183594 196.132812 582.523438 198.09375 C 580.867188 199.902344 581.015625 202.769531 582.976562 204.429688 C 583.730469 205.03125 584.484375 205.785156 585.238281 206.390625 C 586.144531 207.144531 587.199219 207.597656 588.257812 207.597656 C 589.460938 207.597656 590.667969 207.144531 591.574219 206.085938 C 593.234375 204.277344 593.082031 201.414062 591.273438 199.753906 C 590.367188 199 589.613281 198.246094 588.859375 197.640625 Z M 676.183594 433.367188 C 673.769531 433.066406 671.507812 434.875 671.207031 437.289062 C 671.054688 438.195312 670.902344 439.25 670.902344 440.15625 C 670.601562 442.566406 672.261719 444.828125 674.824219 445.28125 C 674.976562 445.28125 675.277344 445.28125 675.429688 445.28125 C 677.691406 445.28125 679.652344 443.625 679.953125 441.359375 C 680.101562 440.304688 680.253906 439.402344 680.40625 438.34375 C 680.40625 435.933594 678.746094 433.667969 676.183594 433.367188 Z M 670.902344 465.792969 C 668.492188 465.191406 666.078125 466.699219 665.472656 469.113281 C 665.171875 470.015625 665.023438 471.070312 664.71875 471.976562 C 664.117188 474.390625 665.625 476.804688 668.039062 477.558594 C 668.339844 477.707031 668.792969 477.707031 669.09375 477.707031 C 671.054688 477.707031 673.015625 476.351562 673.46875 474.238281 C 673.769531 473.183594 673.917969 472.277344 674.222656 471.222656 C 674.824219 468.808594 673.316406 466.398438 670.902344 465.792969 Z M 677.691406 400.488281 C 675.125 400.488281 673.164062 402.601562 673.164062 405.015625 C 673.164062 405.917969 673.164062 406.976562 673.164062 407.878906 C 673.164062 410.445312 675.125 412.40625 677.691406 412.40625 C 680.101562 412.40625 682.214844 410.445312 682.214844 407.878906 C 682.214844 406.976562 682.214844 405.917969 682.214844 404.863281 L 682.214844 404.710938 C 682.214844 402.449219 680.101562 400.488281 677.691406 400.488281 Z M 372.890625 671.207031 C 371.984375 671.054688 370.929688 670.902344 370.023438 670.902344 C 367.613281 670.601562 365.351562 672.261719 364.898438 674.824219 C 364.445312 677.390625 366.253906 679.5 368.820312 679.953125 C 369.875 680.101562 370.777344 680.253906 371.835938 680.40625 C 371.984375 680.40625 372.136719 680.40625 372.4375 680.40625 C 374.699219 680.40625 376.660156 678.746094 376.960938 676.484375 C 377.265625 673.769531 375.453125 671.507812 372.890625 671.207031 Z M 661.703125 497.3125 C 659.441406 496.410156 656.726562 497.617188 655.820312 499.878906 C 655.519531 500.78125 655.066406 501.6875 654.765625 502.59375 C 653.859375 504.855469 655.066406 507.570312 657.332031 508.472656 C 657.933594 508.625 658.386719 508.777344 658.988281 508.777344 C 660.800781 508.777344 662.457031 507.71875 663.210938 505.910156 C 663.511719 505.003906 663.964844 503.949219 664.269531 503.046875 C 665.171875 500.933594 663.964844 498.21875 661.703125 497.3125 Z M 648.582031 527.628906 C 646.320312 526.421875 643.605469 527.328125 642.398438 529.589844 C 641.945312 530.492188 641.496094 531.398438 641.042969 532.152344 C 639.835938 534.414062 640.742188 537.128906 642.851562 538.335938 C 643.605469 538.636719 644.210938 538.9375 644.964844 538.9375 C 646.621094 538.9375 648.128906 538.035156 648.882812 536.527344 C 649.335938 535.621094 649.789062 534.714844 650.394531 533.8125 C 651.75 531.550781 650.84375 528.835938 648.582031 527.628906 Z M 650.390625 276.21875 C 649.1875 273.953125 646.472656 273.199219 644.210938 274.257812 C 641.945312 275.3125 641.191406 278.179688 642.25 280.441406 C 642.699219 281.34375 643.152344 282.25 643.605469 283.003906 C 644.359375 284.511719 646.019531 285.417969 647.679688 285.417969 C 648.433594 285.417969 649.035156 285.265625 649.789062 284.964844 C 652.050781 283.757812 652.957031 281.042969 651.75 278.933594 C 651.449219 278.027344 650.84375 277.121094 650.390625 276.21875 Z M 408.179688 127.964844 C 407.125 127.964844 406.222656 127.964844 405.164062 127.964844 L 404.710938 127.964844 C 402.148438 127.964844 400.1875 129.925781 400.1875 132.488281 C 400.1875 135.054688 402.148438 137.015625 404.710938 137.015625 L 405.164062 137.015625 C 406.222656 137.015625 407.125 137.015625 408.179688 137.015625 C 410.59375 137.015625 412.707031 135.054688 412.707031 132.488281 C 412.554688 130.078125 410.59375 127.964844 408.179688 127.964844 Z M 437.589844 671.207031 C 436.6875 671.355469 435.628906 671.507812 434.726562 671.507812 C 432.3125 671.808594 430.503906 674.070312 430.652344 676.484375 C 430.953125 678.746094 432.914062 680.554688 435.175781 680.554688 C 435.328125 680.554688 435.480469 680.554688 435.628906 680.554688 C 436.6875 680.40625 437.589844 680.253906 438.644531 680.253906 C 441.058594 679.953125 442.871094 677.691406 442.566406 675.277344 C 442.265625 672.5625 440.003906 670.902344 437.589844 671.207031 Z M 441.511719 130.378906 C 440.457031 130.226562 439.550781 130.078125 438.496094 129.925781 C 436.082031 129.625 433.820312 131.433594 433.519531 133.847656 C 433.21875 136.257812 435.027344 138.523438 437.441406 138.824219 C 438.34375 138.972656 439.402344 139.125 440.304688 139.125 C 440.457031 139.125 440.757812 139.125 440.910156 139.125 C 443.171875 139.125 445.132812 137.464844 445.433594 135.203125 C 445.734375 132.941406 443.925781 130.679688 441.511719 130.378906 Z M 469.414062 665.324219 C 468.507812 665.625 467.453125 665.777344 466.546875 666.078125 C 464.132812 666.679688 462.625 669.09375 463.230469 671.507812 C 463.683594 673.617188 465.644531 674.976562 467.601562 674.976562 C 467.90625 674.976562 468.355469 674.976562 468.660156 674.824219 C 469.714844 674.523438 470.621094 674.371094 471.675781 674.070312 C 474.089844 673.46875 475.597656 671.054688 474.992188 668.640625 C 474.238281 666.226562 471.824219 664.71875 469.414062 665.324219 Z M 405.316406 673.164062 L 405.164062 673.164062 C 404.261719 673.164062 403.355469 673.164062 402.449219 673.164062 C 400.039062 673.164062 397.925781 675.125 397.925781 677.691406 C 397.925781 680.253906 399.886719 682.214844 402.449219 682.214844 C 403.355469 682.214844 404.410156 682.214844 405.316406 682.214844 L 405.46875 682.214844 C 408.03125 682.214844 409.992188 680.253906 409.992188 677.691406 C 409.992188 675.125 407.730469 673.164062 405.316406 673.164062 Z M 374.246094 129.625 C 373.191406 129.773438 372.289062 129.925781 371.230469 129.925781 C 368.820312 130.226562 367.007812 132.488281 367.308594 134.902344 C 367.613281 137.164062 369.574219 138.824219 371.835938 138.824219 C 371.984375 138.824219 372.136719 138.824219 372.4375 138.824219 C 373.34375 138.671875 374.398438 138.523438 375.304688 138.523438 C 377.714844 138.21875 379.527344 135.957031 379.375 133.546875 C 378.921875 131.132812 376.8125 129.320312 374.246094 129.625 Z M 474.390625 136.710938 C 473.335938 136.410156 472.429688 136.257812 471.375 135.957031 C 468.960938 135.355469 466.546875 136.863281 465.945312 139.277344 C 465.339844 141.6875 466.847656 144.101562 469.261719 144.707031 C 470.167969 145.007812 471.222656 145.15625 472.128906 145.460938 C 472.582031 145.609375 472.882812 145.609375 473.335938 145.609375 C 475.292969 145.609375 477.253906 144.253906 477.707031 142.140625 C 478.160156 139.726562 476.804688 137.316406 474.390625 136.710938 Z M 529.738281 642.398438 C 528.835938 642.851562 527.929688 643.304688 527.175781 643.757812 C 524.914062 644.964844 524.007812 647.679688 525.214844 649.789062 C 525.96875 651.296875 527.628906 652.203125 529.285156 652.203125 C 530.042969 652.203125 530.644531 652.050781 531.398438 651.75 C 532.304688 651.296875 533.207031 650.84375 534.113281 650.394531 C 536.375 649.1875 537.128906 646.472656 536.074219 644.210938 C 534.714844 642.097656 532 641.191406 529.738281 642.398438 Z M 536.527344 161.144531 C 535.621094 160.691406 534.714844 160.238281 533.8125 159.636719 C 531.550781 158.429688 528.835938 159.335938 527.628906 161.597656 C 526.421875 163.859375 527.328125 166.574219 529.589844 167.78125 C 530.492188 168.234375 531.398438 168.683594 532.152344 169.136719 C 532.90625 169.4375 533.511719 169.742188 534.265625 169.742188 C 535.921875 169.742188 537.429688 168.835938 538.183594 167.328125 C 539.542969 165.066406 538.789062 162.199219 536.527344 161.144531 Z M 557.488281 625.660156 C 556.734375 626.261719 555.832031 626.714844 555.078125 627.316406 C 552.964844 628.675781 552.511719 631.539062 553.871094 633.652344 C 554.773438 635.007812 556.132812 635.613281 557.640625 635.613281 C 558.546875 635.613281 559.449219 635.3125 560.203125 634.859375 C 561.109375 634.253906 561.863281 633.652344 562.769531 633.199219 C 564.878906 631.84375 565.332031 628.976562 563.976562 626.863281 C 562.316406 624.753906 559.449219 624.152344 557.488281 625.660156 Z M 500.332031 655.671875 C 499.425781 655.972656 498.519531 656.425781 497.617188 656.726562 C 495.203125 657.632812 493.996094 660.195312 494.902344 662.609375 C 495.503906 664.417969 497.3125 665.625 499.125 665.625 C 499.578125 665.625 500.179688 665.472656 500.632812 665.324219 C 501.535156 665.023438 502.59375 664.570312 503.496094 664.269531 C 505.757812 663.363281 506.964844 660.800781 506.0625 658.386719 C 505.308594 655.972656 502.59375 654.765625 500.332031 655.671875 Z M 506.210938 146.96875 C 505.308594 146.667969 504.25 146.214844 503.347656 145.910156 C 501.085938 145.007812 498.371094 146.214844 497.464844 148.476562 C 496.558594 150.738281 497.765625 153.453125 500.027344 154.359375 C 500.933594 154.660156 501.839844 155.113281 502.742188 155.414062 C 503.347656 155.5625 503.800781 155.714844 504.402344 155.714844 C 506.210938 155.714844 507.871094 154.660156 508.625 152.847656 C 509.679688 150.585938 508.472656 147.871094 506.210938 146.96875 Z M 506.210938 146.96875 " fill-opacity="1" fill-rule="nonzero"/></g></svg>